# This file uses centimeters as units for non-parametric coordinates.

g default
v 0.989949 -0.500000 1.131371
v 1.131371 -0.500000 0.989949
v 1.131371 0.500000 0.989949
v 0.989949 0.500000 1.131371
v 0.000000 -0.500000 0.141421
v 0.000000 0.500000 0.141421
v 0.141421 -0.500000 0.000000
v 0.141421 0.500000 0.000000
v -0.000000 0.500000 -0.141421
v -0.141421 0.500000 -0.000000
v -0.989949 0.500000 -1.131371
v -1.131371 0.500000 -0.989949
v 0.000000 -0.500000 -0.141421
v -0.989949 -0.500000 -1.131371
v -1.131371 -0.500000 -0.989949
v -0.141421 -0.500000 0.000000
v -1.131371 -0.500000 0.989949
v -0.989949 -0.500000 1.131371
v -0.989949 0.500000 1.131371
v -1.131371 0.500000 0.989949
v 1.131371 0.500000 -0.989949
v 0.989949 0.500000 -1.131371
v 1.131371 -0.500000 -0.989949
v 0.989949 -0.500000 -1.131371
vt 0.375000 0.000000
vt 0.625000 0.000000
vt 0.625000 0.250000
vt 0.375000 0.250000
vt 0.258333 0.000000
vt 0.258333 0.250000
vt 0.625000 0.883333
vt 0.625000 1.000000
vt 0.375000 1.000000
vt 0.375000 0.883333
vt 0.741667 0.000000
vt 0.741667 0.250000
vt 0.625000 0.366667
vt 0.375000 0.366667
vt 0.625000 0.383333
vt 0.375000 0.383333
vt 0.625000 0.500000
vt 0.375000 0.500000
vt 0.758333 0.000000
vt 0.875000 0.000000
vt 0.875000 0.250000
vt 0.758333 0.250000
vt 0.625000 0.750000
vt 0.375000 0.750000
vt 0.125000 0.000000
vt 0.241667 0.000000
vt 0.241667 0.250000
vt 0.125000 0.250000
vt 0.625000 0.866667
vt 0.375000 0.866667
vt 0.375000 0.000000
vt 0.625000 0.000000
vt 0.625000 0.250000
vt 0.375000 0.250000
vt 0.258333 0.000000
vt 0.258333 0.250000
vt 0.625000 0.883333
vt 0.625000 1.000000
vt 0.375000 1.000000
vt 0.375000 0.883333
vt 0.741667 0.000000
vt 0.741667 0.250000
vt 0.625000 0.366667
vt 0.375000 0.366667
vt 0.625000 0.383333
vt 0.625000 0.500000
vt 0.375000 0.500000
vt 0.375000 0.383333
vt 0.758333 0.000000
vt 0.875000 0.000000
vt 0.875000 0.250000
vt 0.758333 0.250000
vt 0.625000 0.750000
vt 0.375000 0.750000
vt 0.125000 0.000000
vt 0.241667 0.000000
vt 0.241667 0.250000
vt 0.125000 0.250000
vt 0.625000 0.866667
vt 0.375000 0.866667
vn 0.707107 0.000000 0.707107
vn 0.707107 0.000000 0.707107
vn 0.707107 0.000000 0.707107
vn 0.707107 0.000000 0.707107
vn -0.707107 0.000000 0.707107
vn -0.707107 0.000000 0.707107
vn -0.707107 0.000000 0.707107
vn -0.707107 0.000000 0.707107
vn 0.000000 -1.000000 0.000000
vn 0.000000 -1.000000 0.000000
vn 0.000000 -1.000000 0.000000
vn 0.000000 -1.000000 0.000000
vn 0.707107 0.000000 -0.707107
vn 0.707107 0.000000 -0.707107
vn 0.707107 0.000000 -0.707107
vn 0.707107 0.000000 -0.707107
vn 0.000000 1.000000 0.000000
vn 0.000000 1.000000 0.000000
vn 0.000000 1.000000 0.000000
vn 0.000000 1.000000 0.000000
vn 0.000000 1.000000 0.000000
vn 0.000000 1.000000 0.000000
vn 0.000000 1.000000 0.000000
vn 0.000000 1.000000 0.000000
vn 0.707107 0.000000 -0.707107
vn 0.707107 0.000000 -0.707107
vn 0.707107 0.000000 -0.707107
vn 0.707107 0.000000 -0.707107
vn -0.707107 0.000000 -0.707107
vn -0.707107 0.000000 -0.707107
vn -0.707107 0.000000 -0.707107
vn -0.707107 0.000000 -0.707107
vn -0.707107 0.000000 0.707107
vn -0.707107 0.000000 0.707107
vn -0.707107 0.000000 0.707107
vn -0.707107 0.000000 0.707107
vn 0.000000 -1.000000 0.000000
vn 0.000000 -1.000000 0.000000
vn 0.000000 -1.000000 0.000000
vn 0.000000 -1.000000 0.000000
vn -0.707107 0.000000 0.707107
vn -0.707107 0.000000 0.707107
vn -0.707107 0.000000 0.707107
vn -0.707107 0.000000 0.707107
vn -0.707107 0.000000 -0.707107
vn -0.707107 0.000000 -0.707107
vn -0.707107 0.000000 -0.707107
vn -0.707107 0.000000 -0.707107
vn 0.000000 -1.000000 0.000000
vn 0.000000 -1.000000 0.000000
vn 0.707107 0.000000 0.707107
vn 0.707107 0.000000 0.707107
vn 0.707107 0.000000 0.707107
vn 0.707107 0.000000 0.707107
vn 0.000000 1.000000 0.000000
vn 0.000000 1.000000 0.000000
vn 0.000000 1.000000 0.000000
vn 0.000000 1.000000 0.000000
vn 0.707107 -0.000000 0.707107
vn 0.707107 -0.000000 0.707107
vn 0.707107 -0.000000 0.707107
vn 0.707107 0.000000 0.707107
vn 0.707107 0.000000 -0.707107
vn 0.707107 0.000000 -0.707107
vn 0.707107 0.000000 -0.707107
vn 0.707107 0.000000 -0.707107
vn -0.707107 0.000000 -0.707107
vn -0.707107 0.000000 -0.707107
vn -0.707107 0.000000 -0.707107
vn -0.707107 0.000000 -0.707107
vn 0.000000 -1.000000 0.000000
vn 0.000000 -1.000000 0.000000
g pCube8
f 1/1/1 2/2/2 4/4/3
f 4/4/3 2/2/2 3/3/4
f 5/5/5 1/1/6 6/6/7
f 6/6/7 1/1/6 4/4/8
f 7/7/9 2/8/10 5/10/11
f 5/10/11 2/8/10 1/9/12
f 2/2/13 7/11/14 3/3/15
f 3/3/15 7/11/14 8/12/16
f 4/4/17 3/3/18 6/14/19
f 6/14/19 3/3/18 8/13/20
f 8/13/20 9/15/21 6/14/19
f 6/14/19 9/15/21 10/16/22
f 9/15/21 11/17/23 10/16/22
f 10/16/22 11/17/23 12/18/24
f 13/19/25 14/20/26 9/22/27
f 9/22/27 14/20/26 11/21/28
f 12/18/29 11/17/30 15/24/31
f 15/24/31 11/17/30 14/23/32
f 15/25/33 16/26/34 12/28/35
f 12/28/35 16/26/34 10/27/36
f 15/24/37 14/23/38 16/30/39
f 16/30/39 14/23/38 13/29/40
f 13/29/40 7/7/9 16/30/39
f 16/30/39 7/7/9 5/10/11
f 17/31/41 18/32/42 20/34/43
f 20/34/43 18/32/42 19/33/44
f 16/35/45 17/31/46 10/36/47
f 10/36/47 17/31/46 20/34/48
f 5/37/11 18/38/49 16/40/39
f 16/40/39 18/38/49 17/39/50
f 18/32/51 5/41/52 19/33/53
f 19/33/53 5/41/52 6/42/54
f 20/34/55 19/33/56 10/44/22
f 10/44/22 19/33/56 6/43/19
f 8/45/20 21/46/57 9/48/21
f 9/48/21 21/46/57 22/47/58
f 7/49/59 23/50/60 8/52/61
f 8/52/61 23/50/60 21/51/62
f 22/47/63 21/46/64 24/54/65
f 24/54/65 21/46/64 23/53/66
f 24/55/67 13/56/68 22/58/69
f 22/58/69 13/56/68 9/57/70
f 24/54/71 23/53/72 13/60/40
f 13/60/40 23/53/72 7/59/9
g default
v 0.989949 -0.500000 1.131371
v 1.131371 -0.500000 0.989949
v 1.131371 0.500000 0.989949
v 0.989949 0.500000 1.131371
v 0.000000 -0.500000 0.141421
v 0.000000 0.500000 0.141421
v 0.141421 -0.500000 0.000000
v 0.141421 0.500000 0.000000
v -0.000000 0.500000 -0.141421
v -0.141421 0.500000 -0.000000
v -0.989949 0.500000 -1.131371
v -1.131371 0.500000 -0.989949
v 0.000000 -0.500000 -0.141421
v -0.989949 -0.500000 -1.131371
v -1.131371 -0.500000 -0.989949
v -0.141421 -0.500000 0.000000
v -1.131371 -0.500000 0.989949
v -0.989949 -0.500000 1.131371
v -0.989949 0.500000 1.131371
v -1.131371 0.500000 0.989949
v 1.131371 0.500000 -0.989949
v 0.989949 0.500000 -1.131371
v 1.131371 -0.500000 -0.989949
v 0.989949 -0.500000 -1.131371
vt 0.375000 0.000000
vt 0.625000 0.000000
vt 0.625000 0.250000
vt 0.375000 0.250000
vt 0.258333 0.000000
vt 0.258333 0.250000
vt 0.625000 0.883333
vt 0.625000 1.000000
vt 0.375000 1.000000
vt 0.375000 0.883333
vt 0.741667 0.000000
vt 0.741667 0.250000
vt 0.625000 0.366667
vt 0.375000 0.366667
vt 0.625000 0.383333
vt 0.375000 0.383333
vt 0.625000 0.500000
vt 0.375000 0.500000
vt 0.758333 0.000000
vt 0.875000 0.000000
vt 0.875000 0.250000
vt 0.758333 0.250000
vt 0.625000 0.750000
vt 0.375000 0.750000
vt 0.125000 0.000000
vt 0.241667 0.000000
vt 0.241667 0.250000
vt 0.125000 0.250000
vt 0.625000 0.866667
vt 0.375000 0.866667
vt 0.375000 0.000000
vt 0.625000 0.000000
vt 0.625000 0.250000
vt 0.375000 0.250000
vt 0.258333 0.000000
vt 0.258333 0.250000
vt 0.625000 0.883333
vt 0.625000 1.000000
vt 0.375000 1.000000
vt 0.375000 0.883333
vt 0.741667 0.000000
vt 0.741667 0.250000
vt 0.625000 0.366667
vt 0.375000 0.366667
vt 0.625000 0.383333
vt 0.625000 0.500000
vt 0.375000 0.500000
vt 0.375000 0.383333
vt 0.758333 0.000000
vt 0.875000 0.000000
vt 0.875000 0.250000
vt 0.758333 0.250000
vt 0.625000 0.750000
vt 0.375000 0.750000
vt 0.125000 0.000000
vt 0.241667 0.000000
vt 0.241667 0.250000
vt 0.125000 0.250000
vt 0.625000 0.866667
vt 0.375000 0.866667
vn 0.707107 0.000000 0.707107
vn 0.707107 0.000000 0.707107
vn 0.707107 0.000000 0.707107
vn 0.707107 0.000000 0.707107
vn -0.707107 0.000000 0.707107
vn -0.707107 0.000000 0.707107
vn -0.707107 0.000000 0.707107
vn -0.707107 0.000000 0.707107
vn 0.000000 -1.000000 0.000000
vn 0.000000 -1.000000 0.000000
vn 0.000000 -1.000000 0.000000
vn 0.000000 -1.000000 0.000000
vn 0.707107 0.000000 -0.707107
vn 0.707107 0.000000 -0.707107
vn 0.707107 0.000000 -0.707107
vn 0.707107 0.000000 -0.707107
vn 0.000000 1.000000 0.000000
vn 0.000000 1.000000 0.000000
vn 0.000000 1.000000 0.000000
vn 0.000000 1.000000 0.000000
vn 0.000000 1.000000 0.000000
vn 0.000000 1.000000 0.000000
vn 0.000000 1.000000 0.000000
vn 0.000000 1.000000 0.000000
vn 0.707107 0.000000 -0.707107
vn 0.707107 0.000000 -0.707107
vn 0.707107 0.000000 -0.707107
vn 0.707107 0.000000 -0.707107
vn -0.707107 0.000000 -0.707107
vn -0.707107 0.000000 -0.707107
vn -0.707107 0.000000 -0.707107
vn -0.707107 0.000000 -0.707107
vn -0.707107 0.000000 0.707107
vn -0.707107 0.000000 0.707107
vn -0.707107 0.000000 0.707107
vn -0.707107 0.000000 0.707107
vn 0.000000 -1.000000 0.000000
vn 0.000000 -1.000000 0.000000
vn 0.000000 -1.000000 0.000000
vn 0.000000 -1.000000 0.000000
vn -0.707107 0.000000 0.707107
vn -0.707107 0.000000 0.707107
vn -0.707107 0.000000 0.707107
vn -0.707107 0.000000 0.707107
vn -0.707107 0.000000 -0.707107
vn -0.707107 0.000000 -0.707107
vn -0.707107 0.000000 -0.707107
vn -0.707107 0.000000 -0.707107
vn 0.000000 -1.000000 0.000000
vn 0.000000 -1.000000 0.000000
vn 0.707107 0.000000 0.707107
vn 0.707107 0.000000 0.707107
vn 0.707107 0.000000 0.707107
vn 0.707107 0.000000 0.707107
vn 0.000000 1.000000 0.000000
vn 0.000000 1.000000 0.000000
vn 0.000000 1.000000 0.000000
vn 0.000000 1.000000 0.000000
vn 0.707107 -0.000000 0.707107
vn 0.707107 -0.000000 0.707107
vn 0.707107 -0.000000 0.707107
vn 0.707107 0.000000 0.707107
vn 0.707107 0.000000 -0.707107
vn 0.707107 0.000000 -0.707107
vn 0.707107 0.000000 -0.707107
vn 0.707107 0.000000 -0.707107
vn -0.707107 0.000000 -0.707107
vn -0.707107 0.000000 -0.707107
vn -0.707107 0.000000 -0.707107
vn -0.707107 0.000000 -0.707107
vn 0.000000 -1.000000 0.000000
vn 0.000000 -1.000000 0.000000
g pCube8
f 25/61/73 26/62/74 28/64/75
f 28/64/75 26/62/74 27/63/76
f 29/65/77 25/61/78 30/66/79
f 30/66/79 25/61/78 28/64/80
f 31/67/81 26/68/82 29/70/83
f 29/70/83 26/68/82 25/69/84
f 26/62/85 31/71/86 27/63/87
f 27/63/87 31/71/86 32/72/88
f 28/64/89 27/63/90 30/74/91
f 30/74/91 27/63/90 32/73/92
f 32/73/92 33/75/93 30/74/91
f 30/74/91 33/75/93 34/76/94
f 33/75/93 35/77/95 34/76/94
f 34/76/94 35/77/95 36/78/96
f 37/79/97 38/80/98 33/82/99
f 33/82/99 38/80/98 35/81/100
f 36/78/101 35/77/102 39/84/103
f 39/84/103 35/77/102 38/83/104
f 39/85/105 40/86/106 36/88/107
f 36/88/107 40/86/106 34/87/108
f 39/84/109 38/83/110 40/90/111
f 40/90/111 38/83/110 37/89/112
f 37/89/112 31/67/81 40/90/111
f 40/90/111 31/67/81 29/70/83
f 41/91/113 42/92/114 44/94/115
f 44/94/115 42/92/114 43/93/116
f 40/95/117 41/91/118 34/96/119
f 34/96/119 41/91/118 44/94/120
f 29/97/83 42/98/121 40/100/111
f 40/100/111 42/98/121 41/99/122
f 42/92/123 29/101/124 43/93/125
f 43/93/125 29/101/124 30/102/126
f 44/94/127 43/93/128 34/104/94
f 34/104/94 43/93/128 30/103/91
f 32/105/92 45/106/129 33/108/93
f 33/108/93 45/106/129 46/107/130
f 31/109/131 47/110/132 32/112/133
f 32/112/133 47/110/132 45/111/134
f 46/107/135 45/106/136 48/114/137
f 48/114/137 45/106/136 47/113/138
f 48/115/139 37/116/140 46/118/141
f 46/118/141 37/116/140 33/117/142
f 48/114/143 47/113/144 37/120/112
f 37/120/112 47/113/144 31/119/81
